<?xml version="1.0" encoding="iso-8859-1"?>
<!-- Generator: Adobe Illustrator 19.0.0, SVG Export Plug-In . SVG Version: 6.00 Build 0)  -->
<svg version="1.1" id="Capa_1" xmlns="http://www.w3.org/2000/svg" xmlns:xlink="http://www.w3.org/1999/xlink" x="0px" y="0px"
	 viewBox="0 0 512 512" style="enable-background:new 0 0 512 512;" xml:space="preserve">
<path style="fill:#FFBDDF;" d="M348.266,70.469v81.622v92.711c0,29.103-12.505,56.803-34.334,76.051l-111.643,98.445
	c-10.733,10.733-23.876,17.565-37.685,20.54c2.346,15.49,9.472,30.395,21.401,42.324c29.698,29.698,77.84,29.698,107.539,0
	l111.643-98.445c21.828-19.248,34.334-46.948,34.334-76.051v-92.711V70.469H348.266z"/>
<path style="fill:#FF8AC6;" d="M348.266,70.469v81.622v92.711c0,29.103-12.505,56.803-34.334,76.051l-111.643,98.445
	c-10.733,10.733-23.876,17.565-37.685,20.54c1.013,6.688,2.921,13.264,5.719,19.542c17.184-3.958,32.978-12.591,45.829-25.27
	l111.193-98.047c26.184-23.089,41.202-56.352,41.202-91.261V70.469H348.266z"/>
<path style="fill:#FFBDDF;" d="M196.175,7.605v214.722L94.75,311.76c-29.698,29.698-29.698,77.84,0,107.539s77.84,29.698,107.539,0
	l111.643-98.445c21.829-19.248,34.334-46.948,34.334-76.051v-92.712V7.605H196.175z"/>
<g>
	<path style="fill:#9AEFEF;" d="M142.515,381.899L84.736,324.12c-19.178,29.475-15.847,69.317,10.015,95.178
		c29.698,29.698,77.84,29.698,107.539,0l111.643-98.445c21.828-19.248,34.334-46.948,34.334-76.051v-6.323L184.142,383.205
		C172.097,393.827,153.87,393.255,142.515,381.899z"/>
	<rect x="196.177" y="7.605" style="fill:#9AEFEF;" width="152.092" height="61.851"/>
	<path style="fill:#9AEFEF;" d="M233.77,444.763l-28.284-28.284l-3.197,2.819c-10.733,10.733-23.876,17.565-37.685,20.54
		c2.346,15.49,9.472,30.395,21.401,42.324c29.698,29.698,77.84,29.698,107.539,0l111.643-98.445
		c21.828-19.248,34.334-46.948,34.334-76.051v-6.323L275.397,446.069C263.352,456.691,245.125,456.12,233.77,444.763z"/>
	<rect x="348.268" y="70.469" style="fill:#9AEFEF;" width="91.255" height="61.851"/>
</g>
<g>
	<path style="fill:#5AE2DB;" d="M313.932,300.574l-111.643,98.445c-29.698,29.698-77.84,29.698-107.539,0
		c-12.254-12.253-19.44-27.647-21.58-43.588c-3.026,22.672,4.154,46.443,21.58,63.867c29.698,29.698,77.84,29.698,107.539,0
		l111.643-98.445c21.828-19.248,34.334-46.948,34.334-76.051v-6.323l-1.115,0.984C343.652,262.955,331.985,284.657,313.932,300.574z
		"/>
	<path style="fill:#5AE2DB;" d="M438.407,302.328c-3.499,23.493-15.167,45.193-33.219,61.112l-111.643,98.445
		c-29.698,29.698-77.84,29.698-107.539,0c-1.805-1.805-3.494-3.682-5.078-5.615c13.067-4.656,25.067-12.137,35.224-22.158
		l3.702-3.264l-14.368-14.368l-3.197,2.819c-9.312,9.312-20.442,15.684-32.244,19.152l0,0c-0.888,0.261-1.779,0.506-2.675,0.735
		c-0.013,0.003-0.026,0.007-0.04,0.01c-0.905,0.231-1.814,0.446-2.726,0.643c1.013,6.686,2.921,13.262,5.717,19.538
		c0.001,0.001,0.001,0.003,0.002,0.004l0,0c3.682,8.262,8.904,16.003,15.683,22.782c29.698,29.698,77.84,29.698,107.539,0
		l111.643-98.445c21.828-19.248,34.334-46.948,34.334-76.051v-6.324L438.407,302.328z"/>
	<rect x="348.268" y="70.469" style="fill:#5AE2DB;" width="20.279" height="61.851"/>
</g>
<rect x="241.616" y="370.323" transform="matrix(0.6614 0.75 -0.75 0.6614 367.8349 -58.9601)" width="15.209" height="15.209"/>
<rect x="264.452" y="350.206" transform="matrix(0.6614 0.75 -0.75 0.6614 360.4787 -82.8988)" width="15.209" height="15.209"/>
<rect x="349.792" y="366.193" transform="matrix(0.6614 0.75 -0.75 0.6614 401.3633 -141.4929)" width="15.209" height="15.209"/>
<rect x="326.969" y="386.268" transform="matrix(0.6614 0.7501 -0.7501 0.6614 408.7272 -117.5727)" width="15.209" height="15.21"/>
<path d="M355.872,62.865V0H188.571v218.893l-98.849,87.164l-0.348,0.326c-15.8,15.8-24.502,36.806-24.502,59.148
	c0,22.342,8.702,43.347,24.502,59.144c15.799,15.8,36.804,24.501,59.146,24.501c3.398,0,6.759-0.225,10.082-0.623
	c3.632,14.746,11.148,28.109,22.027,38.987C196.936,503.847,218.356,512,239.775,512c21.343,0,42.688-8.095,58.974-24.287
	l111.469-98.291c23.458-20.682,36.91-50.481,36.91-81.754V62.865H355.872z M431.918,124.715h-15.209V78.074h15.209V124.715z
	 M355.872,78.074h15.209v46.641h-15.209V78.074z M386.29,78.074h15.209v46.641H386.29V78.074z M340.663,61.851h-15.209V15.209
	h15.209V61.851z M234.198,61.851V15.209h15.209v46.641H234.198z M264.616,15.209h15.21v46.641h-15.21V15.209z M295.035,15.209
	h15.209v46.641h-15.209V15.209z M218.988,15.209v46.641h-15.209V15.209H218.988z M203.779,225.759V77.06h136.882l0,0v157.988
	l-161.55,142.455c-9.012,7.945-22.725,7.516-31.22-0.98l-53.218-53.218c1.64-2.083,3.394-4.093,5.29-6.002L203.779,225.759z
	 M400.158,378.014l-111.643,98.445l-0.349,0.326c-12.927,12.929-30.112,20.048-48.391,20.048c-18.278,0-35.465-7.119-48.392-20.047
	c-8.778-8.777-14.878-19.532-17.894-31.396c11.719-3.649,22.531-9.882,31.748-18.404l23.155,23.155
	c7.182,7.182,16.732,11.136,26.891,11.136c9.264,0,18.194-3.375,25.142-9.505l42.054-37.083l-10.058-11.407l-42.055,37.083
	c-4.169,3.678-9.526,5.702-15.082,5.702c-6.097,0-11.828-2.374-16.137-6.683l-22.558-22.558l20.55-18.12L227.077,387.3
	l-29.82,26.295l-0.348,0.326c-12.928,12.927-30.113,20.047-48.393,20.047c-18.28,0-35.467-7.119-48.393-20.047
	C87.2,400.994,80.08,383.81,80.08,365.531c0-10.164,2.205-19.987,6.381-28.93l50.676,50.676c7.384,7.384,17.13,11.111,26.899,11.111
	c8.964,0,17.949-3.141,25.136-9.479l150.822-132.995c-2.718,22.763-13.708,43.909-31.091,59.237l-24.785,21.856l10.058,11.407
	l24.785-21.856c23.458-20.682,36.91-50.481,36.91-81.754V139.924h76.046v157.988l-62.459,55.076l10.058,11.407l51.731-45.617
	C428.53,341.541,417.54,362.688,400.158,378.014z"/>
<rect x="134.326" y="194.677" width="15.209" height="15.209"/>
<rect x="73.49" y="194.677" width="15.209" height="15.209"/>
<rect x="103.908" y="194.677" width="15.209" height="15.209"/>
<g>
	<path style="fill:#FFFFFF;" d="M295.542,117.617h-15.209v-15.209h15.209V117.617z M265.124,117.617h-60.837v-15.209h60.837V117.617
		z"/>
	<rect x="400.486" y="178.961" style="fill:#FFFFFF;" width="15.209" height="60.837"/>
	
		<rect x="145.49" y="266.218" transform="matrix(-0.6681 -0.744 0.744 -0.6681 32.4636 613.6859)" style="fill:#FFFFFF;" width="15.207" height="66.771"/>
	<rect x="267.153" y="221.04" style="fill:#FFFFFF;" width="52.725" height="15.209"/>
	<rect x="379.701" y="284.918" style="fill:#FFFFFF;" width="35.488" height="15.209"/>
</g>
<g>
</g>
<g>
</g>
<g>
</g>
<g>
</g>
<g>
</g>
<g>
</g>
<g>
</g>
<g>
</g>
<g>
</g>
<g>
</g>
<g>
</g>
<g>
</g>
<g>
</g>
<g>
</g>
<g>
</g>
</svg>
