<?xml version="1.0" encoding="iso-8859-1"?>
<!-- Generator: Adobe Illustrator 19.0.0, SVG Export Plug-In . SVG Version: 6.00 Build 0)  -->
<svg version="1.1" id="Capa_1" xmlns="http://www.w3.org/2000/svg" xmlns:xlink="http://www.w3.org/1999/xlink" x="0px" y="0px"
	 viewBox="0 0 512 512" style="enable-background:new 0 0 512 512;" xml:space="preserve">
<path style="fill:#FF979D;" d="M8.258,87.52h189.935c4.561,0,8.258,3.697,8.258,8.258v162.008c0,6.868,4.25,13.019,10.673,15.448
	L374.883,332.9c32.642,11.299,54.535,42.045,54.535,76.587l0,0c0,48.441-42.214,86.064-90.336,80.512l-236.723-27.314
	C44.024,455.955,0,406.559,0,347.835V95.778C0,91.217,3.697,87.52,8.258,87.52z"/>
<path style="fill:#FF8087;" d="M102.361,462.686L339.084,490c26.577,3.067,51.311-7.078,68.168-24.899l-301.105-35.229
	c-41.682-4.809-73.115-40.078-73.115-82.036V87.52H8.258C3.697,87.52,0,91.217,0,95.778v252.056
	C0,406.559,44.024,455.955,102.361,462.686z"/>
<g>
	<path style="fill:#C4DEFF;" d="M140.387,426.101c0-63.851-51.762-115.613-115.613-115.613c-8.513,0-16.785,0.982-24.774,2.728
		v34.619c0,58.724,44.024,108.12,102.361,114.851l30.724,3.545C137.726,453.713,140.387,440.233,140.387,426.101z"/>
	<path style="fill:#C4DEFF;" d="M374.885,332.901l-2.817-1.066c-29.846,17.075-50.003,49.159-50.003,86.008
		c0,28.625,12.209,54.338,31.617,72.428c41.737-2.68,75.738-37.324,75.738-80.783C429.419,374.946,407.526,344.2,374.885,332.901z"
		/>
	<path style="fill:#C4DEFF;" d="M0,95.778v19.467c0,10.799,7.771,20.64,18.516,21.716c7.239,0.725,13.812-2.294,18.015-7.352
		c2.503-3.012,7.203-2.681,9.76,0.285c3.786,4.393,9.39,7.173,15.644,7.173c6.272,0,11.89-2.796,15.676-7.21
		c2.637-3.074,7.301-3.074,9.938,0c3.786,4.414,9.405,7.21,15.676,7.21c6.272,0,11.89-2.796,15.676-7.21
		c2.637-3.074,7.301-3.074,9.938,0c3.786,4.414,9.405,7.21,15.676,7.21c6.254,0,11.859-2.781,15.644-7.173
		c2.557-2.966,7.257-3.297,9.76-0.285c4.203,5.058,10.776,8.076,18.015,7.352c10.746-1.076,18.516-10.917,18.516-21.716V95.778
		c0-4.561-3.697-8.258-8.258-8.258H8.258C3.697,87.52,0,91.217,0,95.778z"/>
</g>
<g>
	<path style="fill:#A5CDFF;" d="M102.361,462.686l30.724,3.545l0,0c3.784-10.206,6.159-21.078,6.942-32.396l-33.879-3.964
		c-41.682-4.809-73.115-40.078-73.115-82.036v-36.93c-2.738-0.194-5.47-0.417-8.258-0.417c-8.513,0-16.785,0.982-24.774,2.728
		v34.619C0,406.559,44.024,455.955,102.361,462.686z"/>
	<path style="fill:#A5CDFF;" d="M18.517,136.961c5.465,0.547,10.543-1.048,14.516-4.035V87.52H8.258C3.697,87.52,0,91.217,0,95.778
		v19.467C0,126.045,7.771,135.886,18.517,136.961z"/>
	<path style="fill:#A5CDFF;" d="M353.645,490.233c20.908-1.347,39.885-10.625,53.607-25.133l-77.415-9.057
		C335.326,469.076,343.454,480.725,353.645,490.233z"/>
</g>
<path style="fill:#FF8087;" d="M90.839,21.456h189.935c4.561,0,8.258,3.697,8.258,8.258v162.008c0,6.868,4.25,13.019,10.673,15.448
	l157.759,59.666C490.107,278.135,512,308.881,512,343.423l0,0c0,48.441-42.214,86.064-90.336,80.512l-236.723-27.314
	c-58.337-6.731-102.36-56.126-102.36-114.851V29.714C82.581,25.153,86.278,21.456,90.839,21.456z"/>
<path style="fill:#E6646E;" d="M184.942,396.621l236.723,27.314c26.577,3.067,51.311-7.078,68.168-24.899l-301.105-35.229
	c-41.682-4.809-73.115-40.078-73.115-82.036V21.456H90.839c-4.561,0-8.258,3.697-8.258,8.258V281.77
	C82.581,340.494,126.604,389.89,184.942,396.621z"/>
<g>
	<path style="fill:#A5CDFF;" d="M222.968,360.036c0-63.851-51.762-115.613-115.613-115.613c-8.513,0-16.785,0.982-24.774,2.728
		v34.619c0,58.724,44.024,108.12,102.361,114.851l30.724,3.545C220.306,387.649,222.968,374.169,222.968,360.036z"/>
	<path style="fill:#A5CDFF;" d="M457.465,266.836l-2.817-1.066c-29.846,17.075-50.003,49.159-50.003,86.008
		c0,28.625,12.209,54.338,31.617,72.428c41.737-2.68,75.738-37.324,75.738-80.783C512,308.881,490.107,278.135,457.465,266.836z"/>
	<path style="fill:#A5CDFF;" d="M82.581,29.714v19.467c0,10.799,7.771,20.64,18.516,21.716c7.239,0.725,13.812-2.294,18.015-7.352
		c2.503-3.012,7.203-2.681,9.76,0.285c3.786,4.393,9.39,7.173,15.644,7.173c6.272,0,11.89-2.796,15.676-7.21
		c2.637-3.074,7.301-3.074,9.938,0c3.786,4.414,9.405,7.21,15.676,7.21s11.89-2.796,15.676-7.21c2.637-3.074,7.301-3.074,9.938,0
		c3.786,4.414,9.405,7.21,15.676,7.21c6.254,0,11.859-2.781,15.644-7.173c2.557-2.966,7.257-3.297,9.76-0.285
		c4.203,5.058,10.776,8.076,18.015,7.352c10.746-1.076,18.516-10.917,18.516-21.716V29.714c0-4.561-3.697-8.258-8.258-8.258H90.839
		C86.278,21.456,82.581,25.153,82.581,29.714z"/>
</g>
<g>
	<path style="fill:#8CB4EB;" d="M184.942,396.621l30.724,3.545l0,0c3.784-10.206,6.159-21.078,6.942-32.396l-33.879-3.964
		c-41.682-4.809-73.115-40.078-73.115-82.036v-36.93c-2.738-0.194-5.47-0.417-8.258-0.417c-8.513,0-16.785,0.982-24.774,2.728
		v34.619C82.581,340.494,126.604,389.89,184.942,396.621z"/>
	<path style="fill:#8CB4EB;" d="M101.097,70.897c5.465,0.547,10.543-1.048,14.516-4.035V21.456H90.839
		c-4.561,0-8.258,3.697-8.258,8.258v19.467C82.581,59.98,90.351,69.821,101.097,70.897z"/>
	<path style="fill:#8CB4EB;" d="M436.226,424.169c20.908-1.347,39.885-10.625,53.607-25.133l-77.415-9.057
		C417.906,403.011,426.034,414.66,436.226,424.169z"/>
</g>
<g>
</g>
<g>
</g>
<g>
</g>
<g>
</g>
<g>
</g>
<g>
</g>
<g>
</g>
<g>
</g>
<g>
</g>
<g>
</g>
<g>
</g>
<g>
</g>
<g>
</g>
<g>
</g>
<g>
</g>
</svg>
