<svg id="Capa_1" enable-background="new 0 0 512 512" height="512" viewBox="0 0 512 512" width="512" xmlns="http://www.w3.org/2000/svg"><g><g><path d="m405.018 206.44c13.13 13.13 34.418 13.13 47.549 0l42.086-42.086c13.13-13.13 13.13-34.419 0-47.549l-65.971-65.972c-.001-.001-.002-.002-.003-.003-27.745-27.744-65.373-43.33-104.609-43.33h-68.07-68.07c-39.235 0-64.945 3.667-92.689 31.412l-77.893 77.894c-13.13 13.13-13.13 34.419 0 47.549l42.086 42.086c13.13 13.13 34.419 13.13 47.549 0l7.852-7.853v50.4c-42.297 42.509-73.406 94.52-90.946 151.311-7.371 23.865 3.962 49.566 26.701 59.9 17.26 7.844 35.051 14.725 53.298 20.585 47.942 15.396 99.055 23.716 152.112 23.716 73.122 0 142.557-15.792 205.078-44.151 22.811-10.346 34.425-36.119 27.033-60.051-17.54-56.791-48.649-108.802-90.946-151.31v-50.401z" fill="#ffdbe0"/><path d="m137.052 352.372c26.114-45.459 60.892-90.479 74.714-103.384 0-8.373 0-38.053 0-45.415 0-31.465 16.888-60.509 44.233-76.073v-120h-68.07c-39.235 0-64.945 3.667-92.689 31.412l-77.893 77.894c-13.13 13.13-13.13 34.419 0 47.549l42.086 42.086c13.13 13.13 34.419 13.13 47.549 0l7.852-7.853v50.4c-42.297 42.509-73.406 94.52-90.946 151.311-7.371 23.865 3.962 49.566 26.701 59.9 17.26 7.844 35.051 14.725 53.298 20.585v-.001c.002-46.543 10.378-88.743 33.165-128.411z" fill="#ffb5c0"/></g><path d="m343.495 64.065c0-14.671-11.893-26.565-26.565-26.565h-121.86c-14.671 0-26.565 11.894-26.565 26.565 0 7.627 3.278 14.885 8.999 19.928l27.5 24.24c29.144 25.689 72.847 25.689 101.992 0l27.5-24.24c5.722-5.043 8.999-12.302 8.999-19.928z" fill="#ff8e9e"/><g><path d="m220.503 99.25c-14.774 0-18.003 11.977-18.003 26.75s3.23 26.75 18.003 26.75 35.497-26.75 35.497-26.75-20.723-26.75-35.497-26.75z" fill="#b28ae4"/><path d="m291.497 99.25c-14.774 0-35.497 26.75-35.497 26.75s20.723 26.75 35.497 26.75 18.003-11.977 18.003-26.75-3.23-26.75-18.003-26.75z" fill="#b28ae4"/><circle cx="256" cy="126" fill="#c9aaf2" r="19.17"/></g><g><g><g><ellipse cx="176.943" cy="224.063" fill="#ff8e9e" rx="29.355" ry="23.377"/></g><g><ellipse cx="336.057" cy="224.063" fill="#ffb5c0" rx="29.355" ry="23.377"/></g></g></g><g><path d="m186.551 189.56v12c0 4.142 3.358 7.5 7.5 7.5s7.5-3.358 7.5-7.5v-12c0-4.142-3.358-7.5-7.5-7.5s-7.5 3.358-7.5 7.5z"/><path d="m326.449 201.56v-12c0-4.142-3.358-7.5-7.5-7.5s-7.5 3.358-7.5 7.5v12c0 4.142 3.358 7.5 7.5 7.5s7.5-3.358 7.5-7.5z"/><path d="m278.619 206.13c2.721-3.123 2.396-7.86-.727-10.582-3.123-2.721-7.861-2.396-10.582.727-2.729 3.132-6.669 4.928-10.81 4.928s-8.081-1.796-10.81-4.928c-2.722-3.123-7.459-3.447-10.582-.727-3.123 2.722-3.448 7.459-.727 10.582 5.579 6.401 13.641 10.073 22.119 10.073s16.54-3.671 22.119-10.073z"/><path d="m457.87 211.744 42.086-42.086c7.767-7.768 12.044-18.095 12.044-29.078 0-10.985-4.277-21.312-12.044-29.078l-65.929-65.928c-.016-.016-.031-.031-.046-.047-29.358-29.359-68.392-45.527-109.911-45.527h-136.14c-36.48 0-66.859 2.475-97.992 33.608l-77.894 77.894c-7.767 7.767-12.044 18.094-12.044 29.079s4.277 21.312 12.044 29.077l42.086 42.086c14.785 14.783 37.475 15.676 53.205 4.233v29.933c-11.421 11.672-22.161 24.182-31.955 37.225-2.487 3.312-1.818 8.014 1.494 10.501 3.313 2.488 8.014 1.818 10.501-1.494 9.382-12.495 19.677-24.47 30.615-35.655h14.453c4.142 0 7.5-3.358 7.5-7.5s-3.358-7.5-7.5-7.5h-10.108v-42.899c0-6.681-8.101-10.006-12.803-5.303l-7.853 7.852c-10.209 10.209-26.731 10.21-36.942 0l-42.087-42.086c-4.934-4.933-7.65-11.492-7.65-18.47s2.717-13.538 7.651-18.472l77.894-77.894c24.996-24.997 47.16-29.215 87.385-29.215h136.14c37.491 0 72.738 14.59 99.259 41.088.016.017.032.033.048.049l65.973 65.972c4.934 4.933 7.65 11.493 7.65 18.471s-2.717 13.538-7.651 18.472l-42.086 42.086c-10.207 10.209-26.732 10.208-36.941 0l-7.852-7.853c-4.705-4.708-12.804-1.375-12.804 5.303v42.899h-10.109c-4.143 0-7.5 3.358-7.5 7.5s3.357 7.5 7.5 7.5h14.458c40.005 40.911 70.039 91.333 86.931 146.023 6.34 20.549-3.81 42.32-22.965 51.008-63.61 28.853-131.565 43.482-201.981 43.482-70.143 0-138.876-14.801-202.307-43.63-18.945-8.609-28.995-30.278-22.639-50.859 9.367-30.328 22.706-59.321 39.646-86.176 2.21-3.503 1.162-8.135-2.342-10.345-3.505-2.21-8.135-1.161-10.345 2.342-17.644 27.969-31.536 58.166-41.292 89.752-8.583 27.793 4.968 57.218 30.765 68.941 65.285 29.673 136.126 44.975 208.514 44.975 72.567 0 142.608-15.08 208.176-44.821 25.973-11.78 39.683-41.287 31.102-69.094-17.604-56.998-48.906-109.55-90.611-152.174v-29.933c15.732 11.445 38.427 10.545 53.203-4.234z"/><path d="m316.93 30h-121.86c-31.518 0-45.865 39.054-22.53 59.62l24.052 21.201c-1.069 4.205-1.592 9.15-1.592 15.179 0 22.727 8.581 34.25 25.503 34.25 6.842 0 14.431-3.508 23.081-10.667 7.778 4.115 17.051 4.116 24.831 0 8.65 7.159 16.239 10.667 23.081 10.667 16.923 0 25.504-11.523 25.504-34.25 0-19.422-6.078-34.25-25.503-34.25-6.842 0-14.431 3.507-23.081 10.666-7.777-4.115-17.051-4.116-24.831 0-8.65-7.159-16.24-10.666-23.081-10.666-6.688 0-12.218 1.953-16.388 5.705l-21.656-19.085c-13.141-11.601-4.844-33.336 12.61-33.37h121.86c17.473.033 25.763 21.757 12.61 33.37l-5.27 4.64c-3.1 2.73-3.4 7.48-.67 10.59 2.676 3.034 7.389 3.467 10.59.66l5.261-4.64c23.362-20.563 8.939-59.62-22.521-59.62zm-14.93 96c0 19.25-6.071 19.25-10.503 19.25-1.159 0-5.037-.531-12.26-6.208 4.523-8.043 4.628-17.851 0-26.083 7.223-5.677 11.101-6.209 12.26-6.209 6.191 0 10.503 2.412 10.503 19.25zm-34.331 0c0 6.577-5.423 11.67-11.669 11.67-6.24 0-11.669-5.087-11.669-11.67 0-6.591 5.436-11.67 11.669-11.67 6.24 0 11.669 5.086 11.669 11.67zm-47.166-19.25c1.159 0 5.037.531 12.26 6.209-4.523 8.044-4.629 17.851 0 26.083-7.223 5.677-11.101 6.208-12.26 6.208-4.433 0-10.503 0-10.503-19.25 0-16.041 3.779-19.25 10.503-19.25z"/><g fill="#ffb5c0"><path d="m190.805 281.072h-.005c-2.77 0-5.301 1.533-6.618 3.969-24.161 44.685-41.873 100.803-51.65 164.113-.632 4.093 2.174 7.924 6.268 8.557.388.06.773.089 1.154.089 3.636 0 6.83-2.651 7.402-6.356 9.521-61.653 26.679-116.116 50.025-159.269 2.712-5.014-.876-11.103-6.576-11.103z"/><path d="m256 281.072c-4.142 0-7.5 3.358-7.5 7.5v161.727c0 4.218 3.482 7.624 7.73 7.497 4.105-.123 7.27-3.704 7.27-7.811v-161.413c0-4.142-3.358-7.5-7.5-7.5z"/><path d="m379.468 449.154c-9.777-63.31-27.49-119.427-51.65-164.113-1.317-2.437-3.851-3.969-6.621-3.969-5.7 0-9.29 6.089-6.578 11.102 23.346 43.153 40.504 97.616 50.025 159.269.572 3.706 3.766 6.356 7.402 6.356.381 0 .767-.029 1.154-.089 4.094-.631 6.899-4.462 6.268-8.556z"/></g></g></g></svg>