<?xml version="1.0"?>
<svg xmlns="http://www.w3.org/2000/svg" xmlns:xlink="http://www.w3.org/1999/xlink" version="1.1" id="Capa_1" x="0px" y="0px" viewBox="0 0 217.131 217.131" style="enable-background:new 0 0 217.131 217.131;" xml:space="preserve" width="512px" height="512px" class="hovered-paths"><g><path d="M155.363,217.131c-1.381,0-2.5-1.119-2.5-2.5v-12.615c0-2.164,0.745-4.286,2.096-5.978l1.131-1.413  c0.789-0.985,1.129-2.219,0.959-3.471s-0.829-2.349-1.853-3.089c-2.187-1.578-3.611-4.021-3.908-6.702  c-0.297-2.682,0.558-5.378,2.346-7.398l3.285-3.711c1.457-1.646,1.535-4.1,0.186-5.835l-0.49-0.629  c-4.58-5.891-7.103-13.242-7.105-20.701c0-0.024,0-0.049,0.001-0.073c0-0.001,0-0.002,0-0.004v-0.001  c0.013-0.473,0.156-0.913,0.396-1.285c4.186-6.735,6.834-14.338,7.8-22.295c-3.173-16.335-24.209-28.612-49.142-28.612  c-23.343,0-43.629,10.906-48.483,25.995c0.656,8.798,3.356,17.249,7.905,24.66c0.141,0.222,0.248,0.467,0.314,0.729  c0,0,0.001,0.002,0.001,0.004c0.053,0.213,0.078,0.43,0.075,0.645v12.658c0,1.528-0.47,2.993-1.36,4.235l-3.959,5.53  c-0.886,1.237-1.17,2.791-0.779,4.262c0.391,1.471,1.409,2.678,2.792,3.313c2.884,1.321,4.855,3.988,5.272,7.134  s-0.791,6.234-3.232,8.263l-3.244,2.693c-0.552,0.459-0.851,1.134-0.818,1.852s0.39,1.363,0.981,1.771  c1.969,1.356,3.145,3.595,3.145,5.987v13.993c0,1.381-1.119,2.5-2.5,2.5s-2.5-1.119-2.5-2.5v-13.993  c0-0.748-0.367-1.447-0.982-1.871c-1.892-1.305-3.035-3.369-3.138-5.664c-0.103-2.295,0.852-4.453,2.619-5.921l3.244-2.693  c1.126-0.937,1.663-2.307,1.47-3.76c-0.192-1.452-1.067-2.636-2.399-3.246c-2.746-1.258-4.766-3.654-5.542-6.573  s-0.212-6.001,1.546-8.456l3.96-5.531c0.278-0.389,0.425-0.847,0.425-1.324v-8.023l-5.705,3.801  c-0.732,0.461-1.329,0.783-1.931,1.047c-3.533,1.55-7.438,1.587-10.996,0.104c-3.762-1.569-6.672-4.614-8.193-8.574  c-2.34-6.09-0.718-12.89,3.583-17.149c-5.101-2.423-8.662-7.846-8.662-14.13c0-2.719,0.647-5.336,1.772-7.659  c-2.762-8.176-4.161-16.729-4.161-25.443C29.085,35.655,64.74,0,108.565,0s79.48,35.655,79.48,79.48  c0,8.394-1.308,16.661-3.889,24.595c1.526,2.442,2.415,5.367,2.415,8.508c0,6.164-3.468,11.561-8.495,14.033  c3.775,4.317,5.044,10.731,2.814,16.437c-1.544,3.948-4.47,6.975-8.24,8.52c-3.567,1.462-7.474,1.401-11-0.172  c-0.193-0.087-0.376-0.181-0.558-0.277c-0.113-0.045-0.223-0.097-0.33-0.158l-5.893-3.37c0.763,4.758,2.718,9.303,5.69,13.125  l0.49,0.629c2.826,3.635,2.663,8.773-0.388,12.22l-3.285,3.711c-0.867,0.979-1.265,2.233-1.121,3.532s0.807,2.436,1.866,3.2  c2.145,1.55,3.522,3.847,3.879,6.468c0.357,2.622-0.356,5.203-2.009,7.27l-1.131,1.413c-0.645,0.807-1,1.82-1,2.854v12.615  C157.863,216.012,156.744,217.131,155.363,217.131z M46.916,123.022c1.2,0,2.243,0.859,2.458,2.057  c0.227,1.256-0.53,2.481-1.754,2.842c-0.435,0.128-0.785,0.253-1.104,0.393c-4.994,2.191-7.368,8.362-5.296,13.756  c1.027,2.672,2.962,4.715,5.451,5.753c2.284,0.952,4.793,0.929,7.062-0.067c0.371-0.163,0.76-0.374,1.223-0.666l7.572-5.045  c-4.98-8.902-7.602-19.036-7.602-29.461c0-31.785,24.268-57.644,54.098-57.644s54.098,25.858,54.098,57.644c0,0.01,0,0.02,0,0.029  c0,0.007,0,0.012,0,0.019c0,0.003,0,0.006,0,0.009c-0.009,10.463-2.652,20.614-7.667,29.528l7.541,4.313  c0.061,0.026,0.121,0.055,0.181,0.086l0.189,0.101c0.108,0.058,0.216,0.118,0.329,0.169c2.263,1.01,4.771,1.049,7.061,0.11  c2.493-1.021,4.438-3.051,5.48-5.714c2.004-5.129-0.042-11.059-4.659-13.501c-0.986-0.521-1.507-1.634-1.277-2.725  c0.23-1.092,1.155-1.899,2.268-1.979c5.05-0.362,9.005-4.95,9.005-10.445c0-2.464-0.786-4.731-2.1-6.522  c-0.026-0.032-0.053-0.064-0.078-0.098c-1.828-2.431-4.515-3.834-7.384-3.862c-0.005,0-0.011,0-0.016,0  c-0.006-0.001-0.011,0-0.016,0c-0.008-0.001-0.011,0-0.016,0c-0.004-0.001-0.012-0.001-0.017,0c-0.01-0.001-0.015,0-0.021,0  c-0.311,0-0.618,0.021-0.921,0.051c-1.288,0.137-2.475-0.755-2.71-2.036l-0.085-0.509c-0.029-0.156-0.044-0.313-0.044-0.468  c0.001-1.009,0.615-1.94,1.583-2.322l0.367-0.136c0.006-0.003,0.013-0.006,0.02-0.009c1.823-0.806,3.296-2.145,4.328-3.782  c1.782-2.829,2.25-6.55,0.939-9.961c-1.014-2.638-2.92-4.667-5.368-5.713c-1.093-0.468-2.241-0.71-3.392-0.729  c-1.076,0.01-2.154,0.164-3.192,0.541c-0.13,0.048-0.26,0.099-0.39,0.152c-0.006,0.002-0.011,0.004-0.017,0.007  c-1.119,0.468-2.413,0.065-3.068-0.956c-0.266-0.415-0.396-0.883-0.396-1.348c0-0.679,0.275-1.352,0.804-1.84  c0.22-0.203,0.388-0.355,0.546-0.523c1.927-2.06,2.891-4.766,2.891-7.472c0-2.705-0.964-5.411-2.892-7.472  c-1.958-2.093-4.751-3.294-7.663-3.294h0c-2.602,0-4.947,0.977-6.606,2.749c-0.184,0.197-0.37,0.418-0.569,0.678  c-0.067,0.136-0.146,0.265-0.234,0.385c-0.707,0.951-2.182,1.446-3.53,0.495c-0.017-0.012-0.035-0.024-0.051-0.037  c-0.107-0.08-0.207-0.166-0.297-0.26c-0.893-0.874-1.037-2.31-0.267-3.321c0.036-0.047,0.073-0.092,0.111-0.135  c0.086-0.186,0.162-0.364,0.23-0.539c2.101-5.375-0.231-11.553-5.199-13.783c-0.006-0.002-0.011-0.005-0.017-0.007  c-2.39-1.067-4.617-0.618-6.064-0.057c-2.7,1.05-5.06,3.4-6.313,6.289c-0.401,0.927-1.312,1.506-2.292,1.506l0,0  c-0.15,0-0.303-0.014-0.455-0.042c-1.145-0.211-1.993-1.186-2.043-2.349c-0.256-5.849-4.752-10.979-9.621-10.979  C104.6,34.877,100,39.705,100,45.42c0,0.18,0.008,0.358,0.02,0.535c0.01,0.048,0.02,0.096,0.027,0.145  c0.019,0.122,0.028,0.242,0.028,0.362c0,0.472-0.142,0.925-0.388,1.315c-0.23,0.379-0.56,0.694-0.958,0.907  c-0.229,0.128-0.479,0.223-0.742,0.276c-0.983,0.198-1.955-0.208-2.516-0.974c-0.247-0.316-0.418-0.694-0.482-1.112  c-0.004-0.029-0.008-0.06-0.012-0.09c-0.102-0.377-0.205-0.697-0.318-0.99c-0.002-0.007-0.005-0.015-0.008-0.021  c-0.002-0.006-0.004-0.012-0.006-0.017c-0.996-2.562-2.929-4.549-5.448-5.6c-2.444-1.02-5.089-1.011-7.444,0.022  c-2.148,0.942-3.814,2.638-4.846,4.693c-1.272,2.536-1.579,5.622-0.632,8.521c0.044,0.135,0.09,0.269,0.14,0.402  c0.105,0.284,0.155,0.577,0.155,0.867c-0.001,0.826-0.412,1.622-1.135,2.094c-0.979,0.637-2.267,0.513-3.104-0.299  c-1.83-1.772-4.181-2.719-6.639-2.654c-2.455,0.061-4.773,1.126-6.527,3c-1.927,2.061-2.891,4.767-2.891,7.473  c0,2.705,0.964,5.411,2.892,7.472l0.266,0.252c0.491,0.484,0.745,1.131,0.744,1.782c0,0.476-0.136,0.954-0.413,1.374l-0.229,0.344  c-0.087,0.133-0.184,0.254-0.29,0.365c-0.345,0.36-0.783,0.601-1.251,0.707c-0.469,0.108-0.97,0.079-1.438-0.099h0  c-0.001,0-0.003-0.001-0.005-0.002c-0.002,0-0.003-0.002-0.005-0.002c-0.001-0.001-0.004-0.003-0.005-0.002  c-0.001-0.001-0.004-0.002-0.005-0.002h0c-0.146-0.057-0.287-0.128-0.424-0.214c-0.428-0.269-0.788-0.468-1.129-0.623  c-0.014-0.006-0.028-0.013-0.042-0.019c-0.018-0.009-0.037-0.017-0.055-0.024c-0.64-0.28-1.298-0.484-1.966-0.61  c-0.001,0-0.001,0-0.002,0c-0.012-0.002-0.024-0.006-0.037-0.007c-0.004-0.003-0.008-0.001-0.013-0.003  c-0.001,0-0.003,0-0.005-0.001c-1.662-0.301-3.378-0.125-4.985,0.534c-2.492,1.021-4.438,3.051-5.479,5.714  c-0.441,1.129-0.696,2.309-0.782,3.488c-0.324,4.478,1.79,8.976,5.418,10.837c0.011,0.006,0.021,0.012,0.032,0.017l0,0  c0.12,0.062,0.242,0.119,0.365,0.175c0.281,0.125,0.567,0.231,0.854,0.327c0.031,0.01,0.062,0.021,0.092,0.032h0.001  c0,0.001,0.001,0.001,0.001,0.001c0.016,0.006,0.032,0.012,0.047,0.018c0.003,0.005,0.005,0.002,0.007,0.003  c0.003,0,0.009,0.003,0.014,0.006c0.001,0.002,0.004,0.002,0.006,0.003c0.002,0.002,0.005,0.002,0.007,0.003  c0.003,0.001,0.005,0.002,0.007,0.002c0.002,0.007,0.004,0.003,0.007,0.003c0.003,0.007,0.005,0.003,0.007,0.003  c0.002,0.002,0.004,0.002,0.007,0.003c0.002,0.001,0.005,0.002,0.006,0.003c0.003,0.001,0.005,0.002,0.007,0.003  c0.004,0,0.004,0.002,0.007,0.003c0.003,0.001,0.005,0.002,0.007,0.003c0.001,0,0.004,0.003,0.006,0.003  c0.003,0.003,0.004,0.004,0.007,0.003c0.006,0.005,0.005,0.003,0.007,0.003c0.001,0.003,0.005,0.004,0.006,0.003  c0.001,0.001,0.003,0.002,0.007,0.003c0.002,0.001,0.003,0.002,0.006,0.004c0.003,0.001,0.005,0.002,0.007,0.003  c0.003,0.001,0.005,0.002,0.007,0.003c0.002,0,0.005,0.001,0.006,0.003c0.001,0.001,0.004,0.002,0.006,0.003  c0.002,0.001,0.003,0.003,0.007,0.003c0.002,0.002,0.005,0.002,0.006,0.004c0.003,0.001,0.005,0,0.007,0.003  c0.001,0.001,0.002,0.002,0.006,0.003c0.002,0.002,0.004,0.003,0.006,0.003c0.002,0.002,0.004,0.002,0.007,0.004  c0.001,0,0.002,0.002,0.006,0.003c0.002,0.001,0.003,0.003,0.006,0.003c0.002,0.001,0.004-0.001,0.006,0.004  c0.002,0,0.003,0.002,0.007,0.003c0.002,0.002,0.004,0.003,0.006,0.003c0.002,0.001,0.003,0.002,0.006,0.004  c0.002,0.002,0.004,0.004,0.006,0.003c0.002,0.001,0.004,0.001,0.006,0.004c0.002,0.001,0.005,0.004,0.006,0.003  c0.002,0.001,0.002-0.002,0.006,0.004c0.003,0.002,0.004,0.003,0.006,0.003c0.002,0.001,0.002-0.001,0.006,0.004  c0.003,0.002,0.005,0.003,0.006,0.003c0.002,0.001,0.003,0.002,0.005,0.003c0,0,0.003,0.003,0.006,0.004  c0.001,0,0.004,0.002,0.006,0.003c0.003,0,0.004,0.003,0.007,0.004c0,0.001,0.004,0.002,0.006,0.003  c0,0.001,0.001,0.001,0.001,0.001c0.002,0.001,0.004,0.002,0.006,0.003c0.001,0.001,0.004,0.002,0.006,0.004h0.001  c0.002,0.001,0.004,0.002,0.005,0.004c0.003,0,0.004,0.002,0.006,0.003c0,0,0.003,0.002,0.006,0.004h0  c0.002,0.001,0.004,0.003,0.006,0.004c0,0.002,0.004,0.002,0.006,0.003c0.003,0.005,0.004,0.003,0.006,0.004h0  c0.002,0.002,0.004,0.004,0.006,0.004c0.002,0.001,0.005,0.003,0.006,0.004c0.002,0.001,0.004,0.002,0.006,0.004h0  c0.002,0.001,0.005,0.003,0.006,0.004c0.002,0.001,0.004,0.002,0.006,0.003c0.002,0.002,0.004,0.003,0.006,0.004l0,0  c0.104,0.064,0.202,0.136,0.293,0.213l0,0c0.001,0.001,0.003,0.003,0.005,0.004l0,0c0.001,0.002,0.003,0.004,0.005,0.005l0,0  c0.002,0.002,0.003,0.003,0.005,0.005h0c0.001,0.001,0.006,0.004,0.005,0.005c0.001,0.001,0.005,0.005,0.005,0.004  c0.001,0.002,0.003,0.003,0.005,0.005h0c0.002,0.003,0.006,0.006,0.005,0.005c0.001,0.001,0.003,0.003,0.005,0.004  c0.001,0.001,0.003,0.004,0.005,0.005l0,0c0.002,0.002,0.003,0.003,0.005,0.005h0c0.002,0.002,0.003,0.003,0.005,0.005c0,0,0,0,0,0  c0.002,0.001,0.004,0.007,0.005,0.005c0.001,0.001,0.003,0.005,0.005,0.005c0.001,0.001,0.003,0.003,0.004,0.004  c0-0.001,0.002,0.001,0.005,0.005c0.001-0.001,0.002,0.001,0.005,0.005c0.001-0.001,0.003,0.002,0.005,0.005h0  c0.002,0.003,0.004,0.005,0.005,0.005c0.002,0.003,0.004,0.007,0.005,0.005c0.001,0.004,0.003,0.005,0.005,0.005  c0.002,0.003,0.004,0.006,0.005,0.005c0.001,0.003,0.003,0.006,0.005,0.005c0.002,0.001,0.003,0.005,0.005,0.005  c0.001,0.002,0.004,0.007,0.005,0.005c0.002,0.001,0.001,0.003,0.005,0.005c0.001,0.002,0.001,0.003,0.005,0.005  c0.001,0.002,0.002,0.001,0.005,0.006c0.002,0.002,0.004,0.002,0.005,0.005c0.002,0.002,0.004,0.003,0.005,0.005  c0.002,0.001,0.003,0.002,0.005,0.005c0.003,0.003,0.003,0.004,0.005,0.005c0.002,0.002,0.003,0.003,0.005,0.005  c0.002,0.002,0.004,0.005,0.005,0.005c0.002,0.002,0.004,0.006,0.005,0.005c0.002,0.002,0.004,0.004,0.005,0.006  c0.001,0.002,0.004,0.003,0.005,0.005c0.001,0.001,0,0,0.005,0.005c0.001,0.002,0.003,0.005,0.005,0.005  c0.001,0.003,0.003,0.004,0.005,0.006c0.001,0,0.003,0.004,0.005,0.005c0.001,0.002,0.003,0.003,0.005,0.005  c0.001,0.002,0.003,0.003,0.004,0.005c0.002,0.003,0.003,0.004,0.005,0.006c0.002,0,0.003,0.003,0.005,0.005  s0.003,0.003,0.005,0.006c0.004,0.002,0.003,0.004,0.005,0.005c0.001,0,0.003,0.003,0.005,0.005  c0.001,0.002,0.002,0.002,0.005,0.006c0.002,0.001,0.003,0.004,0.005,0.005c0,0.001,0,0.001,0,0.001  c0.001,0.002,0.003,0.003,0.004,0.005c0-0.001,0.002,0.003,0.005,0.005l0,0.001c0.001,0.001,0.003,0.003,0.004,0.005h0  c0.001,0.002,0.003,0.003,0.004,0.005c0,0,0.001,0.002,0.005,0.006h0c0.001,0.002,0.003,0.003,0.004,0.005l0,0  c0.001,0.002,0.003,0.004,0.004,0.006l0,0c0.001,0.002,0.003,0.003,0.005,0.005l0,0c0.089,0.104,0.169,0.215,0.24,0.331l0,0.001  c0.001,0.002,0.002,0.003,0.003,0.005c0.001,0.002,0.002,0.003,0.003,0.007c0.002,0.002,0.002,0.005,0.003,0.005  c0.019,0.031,0.037,0.063,0.054,0.096h0c0.001,0.002,0.002,0.005,0.004,0.007c0,0.001,0.001,0.002,0.001,0.003  c0,0.002,0.001,0.003,0.002,0.005c0,0.001,0,0.001,0.001,0.002c0.001,0.002,0.002,0.004,0.003,0.006h0  c0.197,0.376,0.299,0.803,0.285,1.242l0,0c0,0.005,0,0.01,0,0.015l0,0c0,0.005,0,0.009,0,0.014l0,0c0,0.005,0,0.01-0.001,0.015l0,0  c0,0.003,0,0.005,0,0.008l0,0c0,0.002,0,0.005,0,0.007l0,0c0,0.003,0,0.005,0,0.007v0.001c0,0.002,0,0.004,0,0.007l0,0  c0,0.002,0,0.005,0,0.007c0,0,0,0,0,0.001c0,0.002,0,0.004,0,0.007l0,0c0,0.002,0,0.005,0,0.007l0,0c0,0.003,0,0.005,0,0.007  c0,0.001,0,0.001,0,0.001c0,0.002,0,0.005,0,0.007l0,0c0,0.003,0,0.005,0,0.007v0.001c0,0.002,0,0.004-0.001,0.007l0,0  c0,0.002,0,0.005,0,0.007l0,0c0,0.003,0,0.005,0,0.008l0,0c0,0.002,0,0.005,0,0.007l0,0c-0.008,0.088-0.021,0.176-0.038,0.263  c0,0.001,0,0.001,0,0.001c0,0.002,0,0.005-0.001,0.007c0,0.001,0,0.001,0,0.002c0,0.002-0.001,0.004-0.001,0.006  c0,0.001,0,0.001,0,0.002c0,0.002-0.001,0.005-0.002,0.008c-0.282,1.35-1.61,2.23-2.958,1.951c-0.223-0.018-0.472-0.054-0.672-0.027  c-3.119,0.007-6.348,2.919-8.167,5.807c-0.112,0.178-0.244,0.338-0.393,0.479c-0.811,1.665-1.287,3.53-1.287,5.429  c0,5.78,4.328,10.482,9.647,10.482c0.153,0,0.303-0.014,0.453-0.024l0.163-0.013C46.797,123.024,46.856,123.022,46.916,123.022z   M108.565,85.818c21.557,0,40.516,8.74,49.321,21.604c-2.427-26.614-23.416-47.482-48.864-47.482  c-24.971,0-45.647,20.093-48.708,45.991C69.584,93.854,88.038,85.818,108.565,85.818z M108.565,5  c-41.069,0-74.48,33.412-74.48,74.48c0,6.951,0.949,13.791,2.827,20.396c1.21-1.151,2.573-2.098,4.037-2.781  c-3.203-3.436-4.824-8.462-4.263-13.434c0.163-1.44,0.509-2.877,1.052-4.269c1.543-3.948,4.469-6.974,8.238-8.519  c2.034-0.835,4.177-1.177,6.297-1.019c-0.648-1.79-0.973-3.685-0.973-5.578c0-3.943,1.404-7.887,4.212-10.889  c2.678-2.861,6.249-4.488,10.055-4.582c1.788-0.051,3.527,0.249,5.167,0.853c0.057-3.057,0.973-6.031,2.59-8.532  c1.545-2.391,3.73-4.348,6.417-5.526c3.567-1.566,7.714-1.586,11.378-0.059c2.009,0.838,3.77,2.071,5.203,3.617  c2.382-5.411,7.708-9.282,13.722-9.282c5.672,0,10.861,4.074,13.25,9.725c1.613-1.674,3.544-2.987,5.663-3.811  c3.301-1.283,6.822-1.23,9.915,0.15c0.007,0.004,0.015,0.007,0.022,0.011c0.176,0.079,0.35,0.161,0.522,0.246  c0.014,0.007,0.027,0.014,0.041,0.021c0,0,0.001,0.001,0.001,0.001c0.007,0.003,0.013,0.007,0.02,0.01c0,0,0.001,0.001,0.001,0.001  c5.232,2.637,8.361,8.238,8.333,14.09c1.684-0.681,3.526-1.037,5.45-1.037c0,0,0.001,0,0.001,0c4.29,0.001,8.414,1.778,11.313,4.878  c2.809,3.002,4.213,6.945,4.213,10.889c0,2.211-0.441,4.422-1.325,6.467c1.539,0.108,3.067,0.476,4.532,1.102  c3.702,1.582,6.568,4.607,8.07,8.518c1.33,3.46,1.38,7.15,0.386,10.474l0,0c0,0.001,0,0.002,0,0.002  c-0.713,2.383-1.963,4.577-3.664,6.362c1.217,0.452,2.372,1.073,3.437,1.851c1.873-6.6,2.821-13.426,2.821-20.344  C183.046,38.412,149.634,5,108.565,5z" data-original="#000000" class="hovered-path active-path" data-old_color="#000000" fill="#FB5252"/></g> </svg>
