<svg height="511pt" viewBox="0 -40 511.99861 511" width="511pt" xmlns="http://www.w3.org/2000/svg"><path d="m268.125 281.5625c1.058594 12.390625 3.847656 24.8125 7.902344 35.808594 4.792968 13.089844 12.058594 24.921875 24.203125 34.75 16.800781 13.589844 38.550781 19.804687 59.898437 20.75 35.082032 1.550781 69.292969-5.460938 97.238282-28.171875 13.214843-10.730469 23.4375-24.324219 30.003906-39.5625 4.921875-11.398438 7.796875-23.722657 8.378906-36.457031 1.601562-35.300782-4.734375-70.902344-12.953125-105.105469-5.773437-23.964844-13.550781-47.0625-21.335937-70.285157-11.039063-32.914062-23.910157-64.023437-58.390626-78.132812-14.675781-6.003906-31.625-8.550781-47.414062-6.402344-.050781.007813-.101562.015625-.152344.023438-122.257812 9.691406-78.109375 137.851562-78.109375 137.851562 8.414063 25.96875 2.414063 58.863282.507813 67.75-.300782 1.492188-.507813 2.308594-.507813 2.308594-3.871093 13.128906-7.070312 26.519531-8.847656 40.101562-1.042969 7.941407-1.128906 16.347657-.421875 24.773438zm0 0" fill="#ffc1de"/><path d="m495.753906 268.683594c-.582031 12.734375-3.460937 25.050781-8.382812 36.457031-6.5625 15.234375-16.789063 28.832031-30.003906 39.554687-27.917969 22.6875-62.074219 29.710938-97.105469 28.171876 28.621093-1.34375 55.988281-9.386719 79.101562-28.171876 13.214844-10.722656 23.4375-24.320312 30-39.554687 4.921875-11.40625 7.804688-23.722656 8.382813-36.457031 1.601562-35.304688-4.742188-70.90625-12.953125-105.113282-5.773438-23.957031-13.558594-47.058593-21.339844-70.277343-11.035156-32.910157-23.910156-64.023438-58.382813-78.128907-8.453124-3.460937-17.648437-5.773437-26.953124-6.695312 15.078124-1.589844 31.035156.992188 44.960937 6.695312 34.472656 14.105469 47.347656 45.21875 58.382813 78.128907 7.78125 23.21875 15.566406 46.320312 21.335937 70.277343 8.214844 34.203126 14.558594 69.808594 12.957031 105.113282zm0 0" fill="#ffa4cf"/><path d="m428.660156 91.570312c6.996094 16.945313 10.667969 35.847657 14.019532 53.953126 3.734374 20.191406 6.113281 39.535156-2.78125 58.574218-8.832032 18.90625-27.378907 27.300782-47.527344 30.40625-12.351563 1.902344-25.148438 1.691406-37.433594-.617187-11.226562-2.105469-26.621094-8.214844-35.125-16.105469-10.027344-9.304688-13.957031-26.304688-11-39.324219 8.570312-37.730469-19.789062-77.085937.714844-112.363281 5.210937-8.960938 13.203125-16 22.492187-20.523438 18.730469-9.128906 41.835938-8.035156 59.914063 2.144532 18.277344 10.296875 29.347656 25.988281 36.726562 43.855468zm0 0" fill="#ff7ab8"/><path d="m439.902344 204.097656c-8.835938 18.910156-27.382813 27.300782-47.53125 30.402344-9.511719 1.472656-19.285156 1.679688-28.890625.628906 1.632812-.167968 3.261719-.378906 4.882812-.628906 20.148438-3.101562 38.695313-11.496094 47.527344-30.402344 8.894531-19.039062 6.515625-38.386718 2.78125-58.574218-3.351563-18.105469-7.023437-37.003907-14.023437-53.953126-7.375-17.867187-18.449219-33.5625-36.726563-43.855468-6.28125-3.542969-13.164063-5.984375-20.269531-7.265625 14.988281-2.789063 30.992187-.21875 44.28125 7.265625 18.273437 10.292968 29.351562 25.988281 36.722656 43.855468 7.003906 16.949219 10.675781 35.84375 14.027344 53.953126 3.730468 20.1875 6.109375 39.535156-2.78125 58.574218zm0 0" fill="#ff5ca8"/><path d="m281.550781 147.703125s125.886719 5.902344 189.449219-17.253906c11.214844-4.085938 23.75.480469 29.808594 10.765625.140625.238281.277344.480468.421875.722656 7.433593 12.875 1.707031 29.378906-12 35.148438-1.121094.476562-1.882813.789062-2.109375.875-21.457032 7.992187-43.695313 13.949218-66.230469 17.984374-22.664063 4.0625-45.691406 6.140626-68.71875 6.03125-12.988281-.058593-25.976563-.816406-38.882813-2.292968-13.136718-1.503906-25.179687-4.089844-37.699218-7.707032-4.464844-1.289062-7.402344-5.554687-7-10.183593l2.195312-25.273438c.46875-5.441406 5.335938-9.425781 10.765625-8.816406zm0 0" fill="#ff3d98"/><path d="m489.230469 177.085938c-1.117188.472656-1.878907.789062-2.109375.871093-21.460938 7.992188-43.699219 13.957031-66.226563 17.988281-22.667969 4.0625-45.699219 6.140626-68.730469 6.03125-12.984374-.0625-25.96875-.8125-38.875-2.292968-13.144531-1.5-25.179687-4.089844-37.703124-7.710938-4.464844-1.289062-7.402344-5.554687-6.996094-10.183594l.511718-5.851562c.558594.296875 1.160157.539062 1.792969.71875 12.511719 3.621094 24.558594 6.210938 37.691407 7.710938 12.90625 1.484374 25.890624 2.234374 38.886718 2.292968 23.03125.109375 46.058594-1.972656 68.71875-6.03125 22.539063-4.03125 44.769532-9.996094 66.226563-17.988281.230469-.078125.992187-.398437 2.113281-.871094 9.3125-3.921875 14.945312-12.804687 15.253906-22.136719.359375.507813.699219 1.039063 1.019532 1.578126.140624.242187.28125.480468.421874.722656 7.441407 12.882812 1.710938 29.382812-11.996093 35.152344zm0 0" fill="#e61e7f"/><path d="m243.875 332.582031c-1.0625 12.394531-3.851562 24.8125-7.90625 35.8125-4.789062 13.085938-12.058594 24.917969-24.203125 34.75-16.800781 13.589844-38.550781 19.804688-59.894531 20.746094-35.085938 1.550781-69.292969-5.457031-97.238282-28.171875-13.21875-10.730469-23.4375-24.320312-30.007812-39.558594-4.917969-11.402344-7.796875-23.722656-8.375-36.460937-1.601562-35.296875 4.730469-70.902344 12.949219-105.101563 5.773437-23.96875 13.550781-47.0625 21.335937-70.285156 11.039063-32.917969 23.910156-64.027344 58.390625-78.132812 14.675781-6.003907 31.625-8.554688 47.414063-6.402344.050781.003906.101562.011718.152344.023437 122.257812 9.6875 78.113281 137.847657 78.113281 137.847657-8.414063 25.972656-2.417969 58.867187-.511719 67.753906.304688 1.492187.511719 2.304687.511719 2.304687 3.867187 13.128907 7.070312 26.523438 8.847656 40.101563 1.039063 7.945312 1.128906 16.347656.421875 24.773437zm0 0" fill="#ffc1de"/><path d="m243.875 332.585938c-1.0625 12.386718-3.851562 24.808593-7.902344 35.804687-4.792968 13.09375-12.058594 24.917969-24.210937 34.753906-16.796875 13.585938-38.546875 19.808594-59.894531 20.746094-6.542969.292969-13.046876.28125-19.5-.078125 20.859374-1.160156 41.988281-7.402344 58.382812-20.667969 12.15625-9.835937 19.417969-21.660156 24.210938-34.753906 4.054687-10.996094 6.84375-23.417969 7.902343-35.804687.710938-8.421876.621094-16.835938-.417969-24.78125-1.78125-13.574219-4.984374-26.96875-8.855468-40.09375 0 0-.199219-.820313-.507813-2.3125-1.902343-8.882813-7.902343-41.777344.507813-67.746094 0 0 44.148437-128.160156-78.109375-137.855469-.050781-.011719-.101563-.011719-.152344-.019531-.308594-.039063-.628906-.082032-.9375-.121094 7.34375-.859375 14.765625-.859375 21.949219.121094.050781.007812.097656.007812.148437.019531 122.257813 9.695313 78.113281 137.855469 78.113281 137.855469-8.414062 25.96875-2.414062 58.863281-.511718 67.746094.308594 1.492187.511718 2.3125.511718 2.3125 3.871094 13.125 7.070313 26.519531 8.851563 40.09375 1.039063 7.945312 1.128906 16.355468.421875 24.78125zm0 0" fill="#ffa4cf"/><path d="m83.339844 142.589844c-7 16.949218-10.671875 35.851562-14.023438 53.953125-3.734375 20.191406-6.113281 39.535156 2.785156 58.574219 8.832032 18.910156 27.375 27.304687 47.523438 30.40625 12.355469 1.902343 25.148438 1.691406 37.4375-.613282 11.222656-2.109375 26.617188-8.214844 35.121094-16.105468 10.03125-9.308594 13.957031-26.308594 11-39.328126-8.566406-37.730468 19.792968-77.085937-.714844-112.359374-5.210938-8.964844-13.203125-16-22.488281-20.527344-18.730469-9.128906-41.839844-8.035156-59.917969 2.148437-18.277344 10.292969-29.347656 25.988281-36.722656 43.851563zm0 0" fill="#ff7ab8"/><path d="m203.1875 229.472656c2.953125 13.027344-.96875 30.023438-11.003906 39.328125-8.503906 7.890625-23.898438 14.003907-35.125 16.105469-10.78125 2.03125-21.96875 2.441406-32.902344 1.21875 2.742188-.308594 5.472656-.707031 8.171875-1.21875 11.226563-2.101562 26.621094-8.214844 35.125-16.105469 10.023437-9.304687 13.957031-26.300781 10.996094-39.328125-8.5625-37.722656 19.796875-77.078125-.710938-112.355468-5.210937-8.960938-13.207031-16.003907-22.488281-20.527344-4.863281-2.371094-10.015625-4.050782-15.296875-5.0625 13.453125-2.53125 27.691406-.949219 40.027344 5.0625 9.28125 4.523437 17.273437 11.566406 22.488281 20.527344 20.507812 35.277343-7.855469 74.632812.71875 112.355468zm0 0" fill="#ff5ca8"/><path d="m230.445312 198.722656s-125.882812 5.902344-189.445312-17.253906c-11.21875-4.085938-23.753906.480469-29.808594 10.769531-.140625.238281-.28125.476563-.421875.71875-7.4375 12.878907-1.707031 29.382813 11.996094 35.152344 1.125.472656 1.886719.789063 2.109375.871094 21.460938 7.996093 43.699219 13.949219 66.230469 17.988281 22.664062 4.0625 45.691406 6.136719 68.722656 6.03125 12.988281-.0625 25.972656-.816406 38.878906-2.292969 13.140625-1.503906 25.179688-4.09375 37.703125-7.710937 4.460938-1.289063 7.402344-5.554688 7-10.183594l-2.195312-25.273438c-.472656-5.441406-5.339844-9.425781-10.769532-8.816406zm0 0" fill="#ff3d98"/><path d="m22.765625 228.105469c1.121094.472656 1.882813.792969 2.109375.871093 21.460938 7.992188 43.699219 13.957032 66.230469 17.988282 22.667969 4.0625 45.695312 6.140625 68.726562 6.03125 12.984375-.058594 25.96875-.808594 38.875-2.292969 13.144531-1.5 25.179688-4.089844 37.707031-7.710937 4.460938-1.289063 7.402344-5.550782 6.992188-10.183594l-.511719-5.851563c-.558593.300781-1.160156.539063-1.789062.71875-12.515625 3.621094-24.5625 6.214844-37.695313 7.714844-12.90625 1.480469-25.890625 2.230469-38.886718 2.289063-23.027344.109374-46.058594-1.972657-68.71875-6.03125-22.539063-4.03125-44.765626-9.996094-66.226563-17.988282-.230469-.078125-.988281-.398437-2.109375-.871094-9.316406-3.921874-14.945312-12.804687-15.257812-22.136718-.359376.507812-.699219 1.039062-1.019532 1.582031-.140625.238281-.28125.476563-.417968.71875-7.445313 12.882813-1.710938 29.382813 11.992187 35.152344zm0 0" fill="#e61e7f"/><path d="m250.890625 306.835938c-1.640625-12.546876-4.597656-25.988282-9.039063-41.078126-.0625-.261718-.210937-.90625-.421874-1.929687-.449219-2.105469-1.453126-7.144531-2.296876-13.839844 7.523438-2.496093 12.441407-9.875 11.753907-17.824219l-2.195313-25.269531c-.382812-4.378906-2.375-8.332031-5.609375-11.257812 4.4375-15.339844 16.382813-66.429688-8.140625-103.867188-15.222656-23.234375-41.328125-36.5-77.59375-39.429687-16.652344-2.265625-34.855468.183594-51.261718 6.894531-37.363282 15.285156-51.445313 49.234375-62.664063 82.691406l-.324219.96875c-3.261718 9.722657-6.558594 19.601563-9.726562 29.597657-11.453125-.285157-22.550782 5.582031-28.648438 15.941406l-.449218.769531c-4.585938 7.941406-5.53125 17.5-2.59375 26.234375 2.652343 7.894531 8.230468 14.429688 15.515624 18.308594-5.367187 25.71875-9.820312 55.871094-8.441406 86.292968.617188 13.558594 3.640625 26.707032 8.980469 39.085938 7.070313 16.402344 18.191406 31.070312 32.164063 42.414062 24.566406 19.964844 55.78125 30.058594 92.894531 30.058594 3.097656 0 6.230469-.070312 9.410156-.210937 17.648437-.78125 43.128906-5.300781 64.285156-22.414063 12.0625-9.761718 20.742188-22.191406 26.523438-37.984375 4.351562-11.800781 7.234375-24.863281 8.339843-37.765625 0-.003906 0-.007812 0-.015625.773438-9.246093.621094-18.121093-.460937-26.371093zm-193.566406-159.171876.324219-.96875c10.535156-31.414062 22.597656-60.675781 54.117187-73.574218 10.632813-4.347656 22.105469-6.605469 33.160156-6.605469 3.507813 0 6.972657.226563 10.355469.6875.207031.03125.414062.058594.617188.074219 31.507812 2.5 53.867187 13.488281 66.457031 32.667968 20.816406 31.710938 10.167969 77.746094 6.339843 91.339844-2.605468.101563-8.753906.316406-17.386718.453125.589844-3.371093 1.238281-6.777343 1.902344-10.226562 4.324218-22.476563 8.796874-45.710938-4.257813-68.167969-5.828125-10.023438-14.710937-18.148438-25.6875-23.5-15.132813-7.375-32.8125-8.988281-49.777344-4.542969-4.007812 1.050781-6.40625 5.148438-5.355469 9.160157 1.050782 4.007812 5.148438 6.402343 9.160157 5.355468 13.300781-3.484375 27.660156-2.203125 39.398437 3.515625 8.292969 4.042969 14.964844 10.113281 19.289063 17.554688 10.230469 17.597656 6.472656 37.121093 2.496093 57.789062-.839843 4.359375-1.667968 8.761719-2.394531 13.191407-30.988281.03125-77.71875-1.316407-116.625-8.289063 2.792969-13.730469 5.96875-26.386719 10.816407-38.125 5.246093-12.707031 11.816406-22.648437 20.085937-30.386719 3.023437-2.832031 3.179687-7.578125.347656-10.605468-2.828125-3.023438-7.578125-3.179688-10.601562-.347657-9.867188 9.230469-17.621094 20.882813-23.703125 35.613281-5.304688 12.851563-8.699219 26.324219-11.652344 40.84375-5.894531-1.375-11.507812-2.90625-16.734375-4.621093 3.035156-9.535157 6.1875-18.976563 9.308594-28.285157zm-41.421875 62.992188c-1.589844-4.71875-1.105469-9.671875 1.363281-13.945312l.390625-.667969c3.195312-5.425781 8.941406-8.558594 14.917969-8.558594 1.953125 0 3.933593.335937 5.855469 1.035156 64.242187 23.402344 187.167968 17.941407 192.367187 17.699219.164063-.007812.324219-.023438.484375-.039062.769531-.085938 1.324219.21875 1.65625.488281.328125.269531.734375.753906.804688 1.523437l2.195312 25.269532c.089844 1.054687-.585938 2.03125-1.609375 2.328124-12.863281 3.714844-24.453125 6.085938-36.472656 7.460938-12.496094 1.433594-25.300781 2.1875-38.0625 2.246094-22.238281.097656-44.890625-1.886719-67.363281-5.914063-22.511719-4.035156-44.355469-9.964843-64.898438-17.617187-.257812-.101563-.914062-.378906-1.851562-.769532-4.617188-1.945312-8.179688-5.785156-9.777344-10.539062zm174.761718 48.402344c-1.074218 1.585937-2.265624 3.023437-3.582031 4.246094-7.394531 6.859374-21.394531 12.351562-31.40625 14.230468-11.390625 2.136719-23.464843 2.335938-34.910156.574219-21.03125-3.242187-35.054687-11.941406-41.703125-25.84375 3.558594.734375 7.128906 1.441406 10.71875 2.085937 22.792969 4.085938 45.78125 6.15625 68.367188 6.15625.570312 0 1.144531-.003906 1.714843-.007812 10.292969-.046875 20.617188-.53125 30.800781-1.441406zm45.734376 72.890625c-.992188 11.585937-3.574219 23.289062-7.476563 33.863281-4.894531 13.375-11.84375 23.382812-21.875 31.496094-17.976563 14.542968-40.109375 18.40625-55.511719 19.085937-37.476562 1.660157-68.5-7.257812-92.175781-26.5-12.101563-9.828125-21.730469-22.519531-27.847656-36.710937-4.621094-10.707032-7.234375-22.085938-7.769531-33.824219-1.265626-27.910156 2.699218-55.878906 7.632812-80.097656 9.820312 3.367187 19.890625 6.355469 30.140625 8.964843.976563 3.355469 2.21875 6.714844 3.785156 10.066407 8.835938 18.914062 26.730469 30.570312 53.179688 34.644531 5.90625.910156 11.953125 1.363281 18.011719 1.363281 7.386718 0 14.785156-.675781 21.953124-2.019531 11.75-2.207031 28.917969-8.773438 38.839844-17.980469 4.824219-4.472656 8.585938-10.566406 11.046875-17.347656 5.355469-.832031 10.695313-1.84375 16.148438-3.101563.792969 5.78125 1.683593 10.351563 2.261719 13.046876.347656 1.714843.585937 2.648437.585937 2.648437.023437.089844.050781.195313.078125.28125 4.242188 14.402344 7.058594 27.144531 8.605469 38.957031.941406 7.1875 1.070312 14.980469.386719 23.164063zm0 0"/><path d="m510.320312 164.417969c2.933594-8.734375 1.988282-18.296875-2.59375-26.234375l-.453124-.773438c-6.09375-10.355468-17.191407-16.21875-28.644532-15.9375-3.171875-9.996094-6.46875-19.875-9.730468-29.601562l-.324219-.964844c-11.21875-33.460938-25.296875-67.40625-62.660157-82.691406-16.386718-6.703125-34.566406-9.15625-51.257812-6.894532-36.269531 2.925782-62.375 16.191407-77.597656 39.429688-24.527344 37.433594-12.578125 88.523438-8.144532 103.867188-3.230468 2.921874-5.226562 6.878906-5.605468 11.253906l-2.195313 25.273437c-.691406 7.945313 4.226563 15.324219 11.75 17.824219-.847656 6.714844-1.855469 11.78125-2.3125 13.910156-.195312.96875-.34375 1.605469-.402343 1.855469-4.441407 15.09375-7.398438 28.53125-9.042969 41.078125-1.078125 8.25-1.234375 17.125-.457031 26.375v.015625c1.101562 12.902344 3.988281 25.960937 8.332031 37.75 5.789062 15.808594 14.46875 28.238281 26.53125 38.003906 21.152343 17.109375 46.632812 21.628907 64.285156 22.410157 3.179687.140624 6.3125.210937 9.40625.210937 37.113281 0 68.332031-10.09375 92.894531-30.054687 13.972656-11.347657 25.097656-26.015626 32.164063-42.414063 5.34375-12.378906 8.367187-25.53125 8.984375-39.089844 1.378906-30.417969-3.074219-60.574219-8.4375-86.292969 7.28125-3.882812 12.859375-10.414062 15.511718-18.308593zm-220.710937-115.445313c12.585937-19.207031 34.953125-30.214844 66.488281-32.714844.207032-.015624.367188-.035156.570313-.066406 14.085937-1.917968 29.558593.179688 43.5625 5.910156 31.519531 12.894532 43.585937 42.160157 54.117187 73.574219l.324219.96875c3.121094 9.304688 6.273437 18.75 9.308594 28.285157-5.226563 1.714843-10.839844 3.246093-16.734375 4.621093-2.953125-14.523437-6.34375-27.992187-11.652344-40.84375-9.054688-21.929687-22.132812-37.476562-39.980469-47.527343-20.515625-11.558594-46.148437-12.460938-66.882812-2.355469-10.980469 5.351562-19.863281 13.476562-25.6875 23.5-13.054688 22.457031-8.582031 45.695312-4.257813 68.167969.664063 3.449218 1.308594 6.855468 1.894532 10.226562-8.636719-.136719-14.785157-.351562-17.382813-.453125-3.847656-13.574219-14.523437-59.492187 6.3125-91.292969zm26.308594 91.871094c-.726563-4.429688-1.558594-8.832031-2.398438-13.191406-3.976562-20.667969-7.734375-40.191406 2.496094-57.785156 4.324219-7.441407 10.996094-13.511719 19.289063-17.554688 7.546874-3.675781 15.921874-5.5 24.355468-5.5 9.867188 0 19.808594 2.496094 28.589844 7.441406 14.804688 8.335938 25.753906 21.480469 33.472656 40.179688 4.847656 11.738281 8.019532 24.394531 10.816406 38.125-38.902343 6.96875-85.632812 8.316406-116.621093 8.285156zm172.335937 127.496094c-.53125 11.734375-3.148437 23.117187-7.769531 33.828125-6.113281 14.1875-15.742187 26.878906-27.847656 36.707031-23.675781 19.242188-54.683594 28.15625-92.175781 26.5-15.398438-.679688-37.53125-4.542969-55.507813-19.085938-10.03125-8.113281-16.984375-18.125-21.882813-31.511718-3.894531-10.558594-6.476562-22.261719-7.46875-33.847656-.6875-8.183594-.558593-15.976563.386719-23.167969 1.542969-11.808594 4.359375-24.550781 8.601563-38.953125.027344-.085938.054687-.191406.078125-.28125 0 0 .238281-.933594.574219-2.574219.582031-2.71875 1.476562-7.316406 2.273437-13.125 5.457031 1.261719 10.800781 2.273437 16.15625 3.109375 2.460937 6.777344 6.21875 12.871094 11.039063 17.34375 9.921874 9.207031 27.089843 15.773438 38.84375 17.980469 7.164062 1.34375 14.5625 2.019531 21.949218 2.019531 6.058594 0 12.109375-.453125 18.015625-1.363281 26.449219-4.074219 44.34375-15.730469 53.179688-34.644531 1.566406-3.351563 2.808593-6.710938 3.785156-10.070313 10.25-2.605469 20.316406-5.59375 30.132813-8.960937 4.933593 24.226562 8.902343 52.183593 7.636718 80.097656zm7.84375-108.703125c-1.597656 4.753906-5.164062 8.59375-9.777344 10.535156-.9375.394531-1.597656.671875-1.820312.757813-20.574219 7.664062-42.421875 13.597656-64.933594 17.632812-15.296875 2.742188-30.785156 4.550781-46.035156 5.378906-4.136719.226563-7.308594 3.761719-7.082031 7.898438.222656 4.136718 3.75 7.332031 7.898437 7.085937 15.859375-.863281 31.964844-2.746093 47.867188-5.59375 3.59375-.644531 7.160156-1.351562 10.71875-2.089843-6.648438 13.90625-20.671875 22.605468-41.703125 25.84375-11.445313 1.765624-23.519531 1.566406-34.910157-.574219-10.007812-1.878907-24.011718-7.371094-31.40625-14.230469-1.320312-1.222656-2.515624-2.664062-3.589843-4.253906 6.007812.535156 12.058593.9375 18.089843 1.175781.101563.003906.199219.003906.300782.003906 4.007812 0 7.332031-3.167969 7.492187-7.210937.160157-4.136719-3.0625-7.628906-7.207031-7.789063-8.648438-.339843-17.347656-1.003906-25.855469-1.976562-12.023437-1.375-23.613281-3.746094-36.476562-7.460938-1.019531-.296875-1.695313-1.277343-1.605469-2.328125l2.195312-25.273437c.066407-.769531.472657-1.253907.804688-1.523438.328125-.269531.886719-.574219 1.652344-.488281.160156.019531.324218.03125.484375.039062.320312.015626 32.234375 1.472657 71.511719.0625 53.09375-1.914062 93.757812-7.886718 120.855468-17.761718 7.800782-2.839844 16.535156.324218 20.773438 7.523437l.390625.667969c2.46875 4.273438 2.953125 9.226562 1.367187 13.949219zm0 0"/></svg>